<svg xmlns="http://www.w3.org/2000/svg" viewBox="0 0 32 32" width="32" height="32">
  <defs>
    <linearGradient id="gradient" x1="0%" y1="0%" x2="100%" y2="100%">
      <stop offset="0%" style="stop-color:#0070f3;stop-opacity:1" />
      <stop offset="100%" style="stop-color:#00d4aa;stop-opacity:1" />
    </linearGradient>
  </defs>
  
  <!-- Brain shape -->
  <path d="M8 14c-1 0-2 1-2 2s1 2 2 2h1c0 1 1 2 2 2s2-1 2-2h2c0 1 1 2 2 2s2-1 2-2h1c1 0 2-1 2-2s-1-2-2-2h-1c0-1-1-2-2-2s-2 1-2 2h-2c0-1-1-2-2-2s-2 1-2 2H8z" fill="url(#gradient)" opacity="0.7"/>
  
  <!-- Palm tree trunk -->
  <rect x="15" y="18" width="2" height="8" fill="#8B4513"/>
  
  <!-- Palm fronds -->
  <path d="M16 18 L12 12 Q11 11 12 10 Q13 11 16 16" fill="#228B22"/>
  <path d="M16 18 L20 12 Q21 11 20 10 Q19 11 16 16" fill="#228B22"/>
  <path d="M16 18 L10 16 Q9 15 10 14 Q11 15 16 17" fill="#32CD32"/>
  <path d="M16 18 L22 16 Q23 15 22 14 Q21 15 16 17" fill="#32CD32"/>
</svg>